<svg width="115" height="77" viewBox="0 0 115 77" fill="none" xmlns="http://www.w3.org/2000/svg">
<path d="M0 0H114.583V76.0417H0V0Z" fill="#ED1C24"/>
<path d="M21.875 58.1641V20.8333H28.7708V51.8005H35.8631V58.1641H21.875Z" fill="white"/>
<path d="M46.3538 58.1626C43.3583 58.1626 41.1516 57.2972 39.7352 55.5663C38.3187 53.8355 37.6113 51.2886 37.6113 47.9256V20.8333H44.5975V47.6327C44.5975 48.25 44.6309 48.8418 44.6992 49.4083C44.7674 49.9763 44.9243 50.4411 45.1684 50.8058C45.4139 51.1705 45.8091 51.3529 46.3538 51.3529C46.8986 51.3529 47.3141 51.1735 47.5596 50.8163C47.8051 50.4591 47.9576 49.9927 48.0187 49.4188C48.0797 48.8448 48.1102 48.2485 48.1102 47.6327V20.8333H55.0964V47.9271C55.0964 51.2901 54.3875 53.837 52.9725 55.5678C51.5561 57.2987 49.3494 58.1641 46.3538 58.1641V58.1626Z" fill="white"/>
<path d="M67.1336 58.1626C64.5682 58.1626 62.5042 57.336 60.94 55.6842C59.3758 54.031 58.5938 51.7186 58.5938 48.7469V31.8311C58.5938 28.2758 59.2756 25.553 60.6378 23.6657C62 21.777 64.2202 20.8333 67.2955 20.8333C68.9742 20.8333 70.4682 21.1533 71.7774 21.7918C73.0866 22.4303 74.1165 23.3857 74.8699 24.6568C75.6219 25.9278 75.9987 27.5277 75.9987 29.4579V35.7908H68.9485V30.3749C68.9485 29.2787 68.8138 28.538 68.546 28.1558C68.2767 27.7736 67.8613 27.5825 67.2969 27.5825C66.6395 27.5825 66.1954 27.8299 65.9677 28.3217C65.7385 28.815 65.6253 29.4712 65.6253 30.2905V48.6432C65.6253 49.6565 65.77 50.372 66.0579 50.7883C66.3472 51.2045 66.7598 51.4134 67.2969 51.4134C67.9014 51.4134 68.3268 51.1571 68.576 50.6431C68.8238 50.1291 68.9485 49.4625 68.9485 48.6432V42.0393H76.0789V48.9766C76.0789 52.1986 75.2939 54.5362 73.7226 55.9864C72.1513 57.4382 69.9554 58.1641 67.1365 58.1641L67.1336 58.1626Z" fill="white"/>
<path d="M83.3299 58.1641V45.8834L77.8273 20.8333H84.661L86.5796 33.4745L88.4983 20.8333H95.3125L89.8294 45.8834V58.1641H83.3285H83.3299Z" fill="white"/>
</svg>
